# xmcd CD database file generated by OrangeCD 4.2
#
# Track frame offsets:
#	150
#	12678
#	25504
#	38092
#	54885
#	67327
#	84300
#	95408
#	110826
#	123700
#	135413
#	142458
#	146669
#	159318
#	176483
#	200915
#	211920
#
# Disc length: 3069 seconds
#
# Revision: 0
# Processed by: cddbd v1.5PL3 Copyright (c) Steve Scherf et al.
# Submitted via: OrangeCD 4.2
#
DISCID=fe0bfb11
DTITLE=Cash, Johnny (Johnny Cash) and The Carter Family - Wembley Arena 31 March 
DTITLE=1986 
DYEAR=1986
DGENRE=Country
TTITLE0=Johnny Cash Band - Intro Medley
TTITLE1=Johnny Cash - Ring Of Fire
TTITLE2=Johnny Cash - Folsom Prison Blues
TTITLE3=Johnny Cash - Sunday Morning Coming Down
TTITLE4=Johnny Cash - Any Old Wind That Blows
TTITLE5=Johnny Cash - These Hands
TTITLE6=Johnny Cash - Here Comes That Rainbow Again
TTITLE7=Johnny Cash - Love Is The Way
TTITLE8=Johnny Cash w/ John Schnieder - The Highwayman
TTITLE9=Johnny Cash - Big River
TTITLE10=Johnny Cash - I Guess Things Happen That Way
TTITLE11=Johnny Cash - Band Introductions
TTITLE12=Johnny Cash - Fairweather Friends
TTITLE13=Earl "Pool" Ball - Piano Solo
TTITLE14=Johnny Cash - One Piece At A Time
TTITLE15=Johnny Cash - Forty Shades Of Green
TTITLE16=Johnny Cash - Ghost Riders In The Sky
EXTD=
EXTT0=
EXTT1=
EXTT2=
EXTT3=
EXTT4=
EXTT5=
EXTT6=
EXTT7=
EXTT8=
EXTT9=
EXTT10=
EXTT11=
EXTT12=
EXTT13=
EXTT14=
EXTT15=
EXTT16=
PLAYORDER=
